<svg xmlns="http://www.w3.org/2000/svg" viewBox="0 0 512 512" width="512" height="512">
  <defs>
    <linearGradient id="grad" x1="0%" y1="0%" x2="100%" y2="100%">
      <stop offset="0%" style="stop-color:#14b8a6;stop-opacity:1" />
      <stop offset="100%" style="stop-color:#3b82f6;stop-opacity:1" />
    </linearGradient>
  </defs>
  
  <!-- Background -->
  <rect width="512" height="512" rx="102" fill="url(#grad)"/>
  
  <!-- Lotus flower petals -->
  <g fill="white">
    <ellipse cx="256" cy="134" rx="64" ry="96"/>
    <ellipse cx="378" cy="204" rx="64" ry="96" transform="rotate(45 378 204)"/>
    <ellipse cx="378" cy="308" rx="64" ry="96" transform="rotate(90 378 308)"/>
    <ellipse cx="378" cy="412" rx="64" ry="96" transform="rotate(135 378 412)"/>
    <ellipse cx="256" cy="512" rx="64" ry="96" transform="rotate(180 256 512)"/>
    <ellipse cx="134" cy="412" rx="64" ry="96" transform="rotate(225 134 412)"/>
    <ellipse cx="134" cy="308" rx="64" ry="96" transform="rotate(270 134 308)"/>
    <ellipse cx="134" cy="204" rx="64" ry="96" transform="rotate(315 134 204)"/>
  </g>
</svg>
